<svg id="Layer_1" data-name="Layer 1" xmlns="http://www.w3.org/2000/svg" viewBox="0 0 93.24 92.35"><defs><style>.cls-1{fill:#ffc42a;}.cls-2{fill:#403d3c;}</style></defs><circle class="cls-1" cx="54" cy="53.26" r="38.19"/><path class="cls-2" d="M42.39,83.64a41.37,41.37,0,1,1,41.4-41.39A41.38,41.38,0,0,1,42.39,83.64Zm0-79.78A38.39,38.39,0,1,0,80.85,42.25,38.44,38.44,0,0,0,42.39,3.86Z"/><path class="cls-2" d="M39.27,56.67a1.84,1.84,0,0,1-1.17-.41,2.07,2.07,0,0,1-.65-1.76L39,42.42l-7,2.71a1.82,1.82,0,0,1-1.82-.23,1.8,1.8,0,0,1-.77-1.65l1-26.91A2.68,2.68,0,0,1,32,14.1L48.22,7.62a1.84,1.84,0,0,1,1.89.24,1.81,1.81,0,0,1,.65,1.77L47.69,28.82l7.89-3.35a1.9,1.9,0,0,1,2,.29,1.69,1.69,0,0,1,.29,2L47.05,53.2a3,3,0,0,1-1.83,1.65l-5.36,1.71A2,2,0,0,1,39.27,56.67Zm1.12-17.78a1.57,1.57,0,0,1,1.12.41,1.8,1.8,0,0,1,.65,1.77L40.51,53.26l3.77-1.18.06-.06L54,29.35,47,32.3a1.84,1.84,0,0,1-1.89-.24,1.79,1.79,0,0,1-.64-1.77L47.52,11,33.33,16.69l-.95,25.09L39.63,39A2.88,2.88,0,0,1,40.39,38.89Z"/><path class="cls-2" d="M41.22,76.64a9.19,9.19,0,1,1,9.18-9.19A9.2,9.2,0,0,1,41.22,76.64Zm0-15.37a6.24,6.24,0,1,0,6.24,6.24A6.24,6.24,0,0,0,41.22,61.27Z"/></svg>